<?xml version="1.0" encoding="UTF-8"?>
<svg id="Layer_1" data-name="Layer 1" xmlns="http://www.w3.org/2000/svg" viewBox="0 0 400 400">
  <defs>
    <style>
      .cls-1 {
        fill: #ed1d24;
      }
    </style>
  </defs>
  <path class="cls-1" d="M229,12.03c41.14-1.19,71.02,28,68.43,69.53-3.33,53.4-57.04,105.64-103.1,127.12-22.75,10.61-54.64,15.05-52.14-20.53,1.4-19.9,28.66-61.51,51.09-44.83,17.11,12.72-7.25,29.42-15.53,38.63-10.51,11.68-15.29,25.57,6.99,16.01,28.92-12.4,71.45-54.96,77.86-86.34,4.32-21.13-2.73-39.91-27.7-32.76-34.7,9.93-68.7,53.63-104.25,50.35-16.23-1.5-23.67-16.1-21.02-31.15,7.72-43.74,77.87-84.82,119.37-86.02Z"/>
  <path class="cls-1" d="M67.71,324.98v-9.31c0-1.17-2.31-4.76-3.42-5.61-8.01-6.17-23.69.34-31.8,4.16l-5.95-14.02c23.12-13.62,61.12-15.25,63.73,19.43,1.28,16.95-.96,35.38.04,52.49l-.32,1.37c-17.25,17.36-53.47,21.75-66.22-3.17-10.5-20.53,3.22-45.34,26.73-45.34h17.21ZM67.71,340.78h-12.13c-5.7,0-11.42,7.38-12.07,12.76-1.99,16.33,10.65,22.1,24.2,15.45v-28.21Z"/>
  <path class="cls-1" d="M329.01,341.9h-47.41v11c0,2,2.2,8.89,3.27,10.84,5.18,9.46,18.46,8.6,27.35,5.67,4.13-1.36,7.72-3.85,11.7-5.51l5.68,13.21c-3.26,2.05-6.47,4.27-9.99,5.89-17.64,8.11-40.29,7.36-52.02-9.9-19.98-29.4-6.93-92.43,38.27-80,20.85,5.73,23.6,30.48,23.14,48.79ZM282.17,327.8h23.42c1.54,0,.31-6.64.03-7.93-.93-4.33-3.22-9.66-8.06-10.56-11.23-2.08-15.5,9.3-15.39,18.49Z"/>
  <path class="cls-1" d="M235.89,266.87v25.95h14.67v16.92h-14.67v52.75c0,.22,1.21,3.76,1.45,4.19,2.49,4.41,8.62,5.12,13.22,5.12v14.1c-18.76,3.85-35.55-3.29-37.24-23.99l-.03-90.73,22.6-4.32Z"/>
  <path class="cls-1" d="M365.13,266.87v95.63c0,.59,1.42,4.15,1.89,4.88,2.53,3.94,8.57,4.11,12.79,4.43v13.82l-.94.75c-19.15,3.09-34.04-3.82-35.73-24.46l-.03-90.73,22.03-4.32Z"/>
  <path class="cls-1" d="M147.29,308.9c12.73-13.99,34.22-22.69,52.47-14.63l-5.63,14.35c-8.52-1.89-18.24-.88-24.83,5.36v71.93h-22.01v-77.01Z"/>
  <polygon class="cls-1" points="129.23 292.82 129.23 385.91 107.22 385.91 107.22 296.21 129.23 292.82"/>
  <path class="cls-1" d="M118.32,255.24c18.49-.27,18.37,31.7-1.79,29.68-16.77-1.68-16.29-29.42,1.79-29.68Z"/>
</svg>