<?xml version="1.0" encoding="UTF-8"?>
<svg id="Layer_1" data-name="Layer 1" xmlns="http://www.w3.org/2000/svg" viewBox="0 0 402.88 210">
  <defs>
    <style>
      .cls-1 {
        fill: #1e1e1c;
      }
    </style>
  </defs>
  <path class="cls-1" d="M209.25,202.38h-2.95c-.26-.41-.93-.25-1.35-.25-3.65-.04-7.31.05-10.96,0-45.27-.57-96.5-9.88-136.27-31.94-20.57-11.41-42.98-29.95-48-54.12-.41-1.98-.55-4-1.06-5.95.14-2.65-.19-5.49,0-8.12,2.67-36.84,46.26-61.72,76.97-73.24C155.8,2.45,253.45,2.79,323.01,30.98c27.49,11.14,62.91,32.54,69.96,63.65,8.03,35.38-22.55,62.11-50.41,77.04-39.35,21.08-88.97,29.54-133.31,30.71ZM190.49,24.84c-32.94.85-67.76,6.05-98.77,17.14-28.84,10.31-74.8,34.73-66.94,72.08,5.74,27.28,40.07,45.66,63.99,54.61,64.15,24.01,153.98,24.4,218.73,2.38,26.16-8.9,65.85-28.34,71-58.67,6.22-36.64-39.53-60.58-67.97-70.66-37.65-13.34-80.15-17.93-120.04-16.9Z"/>
  <path class="cls-1" d="M120.65,73.73c4.91,7.86,9.85,15.79,15.01,23.5.31.46,1.36,2.34,1.85,2.33l16.98-25.83h15.14v64.08s-.34.37-.37.37h-14.89v-36.41l-11.54,17.55-.39.18-10.47-.14-11.57-17.59v36.41h-15.01v-64.45h15.26Z"/>
  <polygon class="cls-1" points="254.16 73.73 281.53 111.54 282.1 111.85 282.1 73.73 297.11 73.73 297.11 137.93 281.97 137.93 255.13 100.8 254.28 100.29 254.28 137.93 239.27 137.93 239.27 73.73 254.16 73.73"/>
  <path class="cls-1" d="M231.64,73.73v15.25h-19.69v49.2h-14.89s-.37-.34-.37-.37v-48.83h-19.44v-15.25h54.39Z"/>
</svg>