<?xml version="1.0" encoding="UTF-8"?>
<svg id="Layer_1" data-name="Layer 1" xmlns="http://www.w3.org/2000/svg" viewBox="0 0 400 400">
  <defs>
    <style>
      .cls-1 {
        fill: #28b04b;
      }
    </style>
  </defs>
  <path class="cls-1" d="M332.16,340.73C220.44,445.21,37.22,384.74,10.18,234.8-16.17,88.61,125.7-31.74,265.75,18.57c134.78,48.42,171.48,223.9,66.41,322.16ZM195.53,15.97C56.52,19.03-29.13,171.12,40.4,292.13c71.37,124.2,252.29,122.34,321.21-3.13C430.21,164.09,337.1,12.86,195.53,15.97Z"/>
  <path class="cls-1" d="M85.38,220.27h19.39c-.32-4.98-1.6-9.6-1.1-14.68,1.86-18.94,22.77-32.95,40.28-23.11,1.16.65,2.88,2.52,3.78,2.87,1.55.6.36-3.57,1.74-3.9,2.31.39,14.08-.68,14.9.55.46.69-.08,3.73,1.62,3.35,8.72-9.73,23.71-7.49,30.48,3.32,11.09-15.13,34.88-11.6,38.51,7.49-.56,12.61,1.7,26.3.58,38.82-.1,1.16-.2,3.05-1.5,3.48-1.13.38-12.04.32-13.79.12-2.31-.26-2.31-1.63-2.49-3.61-.88-9.96,1.59-23.86-.1-33.14-.64-3.52-3.34-5.67-6.77-5.97-7.84-.69-9.8,3.89-10.3,10.81-.35,4.82.9,28.4-.57,30.46-1.24,1.74-13.69,2-15.48,1.15-1.06-.5-1.55-2.21-1.67-3.31-1.16-9.94,1.61-23.65-.12-33.13-1.33-7.3-11.92-8.08-15.3-2.26-4,6.88-.54,27.62-1.72,36.51-.14,1.08-.32,2-1.52,2.36-1.47.43-12.46.31-14.07-.13-.44-.12-.86-.27-1.1-.68-.75-.66.07-4.11-1.33-3.51-8.68,8.25-22.16,7.66-31.72,1.23-1.62-1.09-2.54-2.73-4.3-3.47-1.07-.14-1.25,2.14-2.14,3.15-1.51,1.7-5.08,3.18-7.35,3.46l-39.82.05c-3.87-.73-2.39-11.41-.94-14.21l28.37-43.67c.07-1.42-14.63-.68-16.35-.85-8.99-.9-9.86-9.19-7.9-16.47.15-.17,1.12-.7,1.24-.7h44.88c1.91,0,1.54,8.57,1.38,10.25-1.01,10.35-13.51,24.75-19.4,33.79-2.87,4.41-6.02,8.91-8.3,13.59ZM131.78,196.03c-5.14.87-9.72,6.87-10.33,11.83-1.91,15.27,18.64,21.99,25.75,9.13,6.3-11.39-2.8-23.1-15.41-20.95Z"/>
  <path class="cls-1" d="M286.52,215.29c1.18,7.77,10.22,11.6,17.17,9.14,2.44-.87,5.39-4.71,7.49-4.71h15.24c-5.55,18.51-26.62,25.72-43.18,15.75-19.58-11.8-18.43-40.91.9-52.21,21.74-12.71,47.83,6.15,44.42,30.57-.22.59-2.06,1.46-2.42,1.46h-39.62ZM310.9,203.1c-2.81-12.28-21.11-12.09-23.83,0h23.83Z"/>
  <path class="cls-1" d="M262.14,162.65v16.35c0,3.34,6.57,1.74,7.72,3.37.83,1.18.83,8.2.63,9.96-.41,3.61-4.11,1.92-6.3,2.56-.64.19-2.04,1.99-2.04,2.39v39.9c-6.42,3.77-16.53.54-17.18-7.76l-.07-33.73c-.57-1.68-5.81-.97-7.14-1.73-1.69-.96-1.39-9.33-.44-10.98,1.62-2.8,6.26-.3,7.38-2.6,1.18-2.43-.5-8.55.95-12.35.61-1.61,4.2-5.38,5.7-5.38h10.8Z"/>
  <path class="cls-1" d="M344.6,162.22c2.59-.05,4.42.56,4.54,3.46l-.02,70.92c-.07.57-.31,1.1-.76,1.45-.85.67-12.75.81-14.44.48-.58-.11-1.08-.28-1.45-.76l-.47-68.17c1.49-6.44,6.81-7.27,12.61-7.38Z"/>
</svg>